<svg xmlns="http://www.w3.org/2000/svg" viewBox="0 0 12 28" shape-rendering="crispEdges">
  <rect width="12" height="28" fill="none"/>
  <rect x="4" y="1" width="4" height="1" fill="#2b1d0e"/>
  <rect x="3" y="2" width="6" height="1" fill="#5a3b1b"/>
  <rect x="2" y="3" width="8" height="3" fill="#d6a67a"/>
  <rect x="3" y="4" width="1" height="1" fill="#1b1208"/>
  <rect x="8" y="4" width="1" height="1" fill="#1b1208"/>
  <rect x="4" y="5" width="4" height="1" fill="#b9865c"/>

  <rect x="2" y="6" width="8" height="2" fill="#1f4fa3"/>
  <rect x="1" y="8" width="10" height="3" fill="#2f6ed4"/>
  <rect x="0" y="11" width="12" height="2" fill="#2b61be"/>
  <rect x="1" y="13" width="10" height="3" fill="#3a7ee6"/>

  <rect x="1" y="16" width="4" height="4" fill="#5b3b24"/>
  <rect x="7" y="16" width="4" height="4" fill="#5b3b24"/>
  <rect x="2" y="20" width="3" height="5" fill="#3a4b63"/>
  <rect x="7" y="20" width="3" height="5" fill="#3a4b63"/>

  <rect x="2" y="25" width="3" height="2" fill="#2a2a2a"/>
  <rect x="7" y="25" width="3" height="2" fill="#2a2a2a"/>
  <rect x="2" y="27" width="3" height="1" fill="#1a1a1a"/>
  <rect x="7" y="27" width="3" height="1" fill="#1a1a1a"/>
</svg>
